# xmcd
#
# Track frame offsets:
#	150
#	17411
#	32856
#	52478
#	66751
#	84181
#	101769
#	118474
#	135520
#	152746
#	172170
#
# Disc length: 2521 seconds
#
# Revision: 0
# Processed by: cddbd v1.5.2PL0 Copyright (c) Steve Scherf et al.
# Submitted via: EasyCDDAExtractor 9.1.3.1
#
DISCID=9809d70b
DTITLE=Jason Michael Carroll - Waitin' In The Country
DYEAR=2007
DGENRE=Country
TTITLE0=Waitin' In The Country
TTITLE1=I Can Sleep When I'm Dead
TTITLE2=Alyssa Lies
TTITLE3=Lookin' At You
TTITLE4=No Good In Goodbye (with Jewel)
TTITLE5=Livin' Our Love Song
TTITLE6=Anywhere USA
TTITLE7=Honky Tonk Friends
TTITLE8=Love Won't Let Me
TTITLE9=Angel Of Broken Hearts
TTITLE10=Let It Rain
EXTD=
EXTT0=
EXTT1=
EXTT2=
EXTT3=
EXTT4=
EXTT5=
EXTT6=
EXTT7=
EXTT8=
EXTT9=
EXTT10=
PLAYORDER=
